<?xml version="1.0" encoding="UTF-8"?>
<svg xmlns="http://www.w3.org/2000/svg" xmlns:xlink="http://www.w3.org/1999/xlink" width="1200pt" height="1200pt" viewBox="0 0 1200 1200" version="1.1">
<g id="surface1">
<path style="fill:none;stroke-width:1;stroke-linecap:butt;stroke-linejoin:miter;stroke:rgb(0%,0%,0%);stroke-opacity:0.25;stroke-miterlimit:10;" d="M 100 100 L 130 120 L 130 170 L 100 150 L 100 100 "/>
<path style="fill:none;stroke-width:1;stroke-linecap:butt;stroke-linejoin:miter;stroke:rgb(0%,0%,0%);stroke-opacity:0.25;stroke-miterlimit:10;" d="M 100 150 L 130 170 L 130 220 L 100 200 L 100 150 "/>
<path style="fill:none;stroke-width:1;stroke-linecap:butt;stroke-linejoin:miter;stroke:rgb(0%,0%,0%);stroke-opacity:0.25;stroke-miterlimit:10;" d="M 100 200 L 130 220 L 130 270 L 100 250 L 100 200 "/>
<path style="fill:none;stroke-width:1;stroke-linecap:butt;stroke-linejoin:miter;stroke:rgb(0%,0%,0%);stroke-opacity:0.25;stroke-miterlimit:10;" d="M 100 250 L 130 270 L 130 320 L 100 300 L 100 250 "/>
<path style="fill:none;stroke-width:1;stroke-linecap:butt;stroke-linejoin:miter;stroke:rgb(0%,0%,0%);stroke-opacity:0.25;stroke-miterlimit:10;" d="M 100 100 L 150 100 L 180 120 L 130 120 L 100 100 "/>
<path style="fill:none;stroke-width:1;stroke-linecap:butt;stroke-linejoin:miter;stroke:rgb(0%,0%,0%);stroke-opacity:0.25;stroke-miterlimit:10;" d="M 150 100 L 200 100 L 230 120 L 180 120 L 150 100 "/>
<path style="fill:none;stroke-width:1;stroke-linecap:butt;stroke-linejoin:miter;stroke:rgb(0%,0%,0%);stroke-opacity:0.25;stroke-miterlimit:10;" d="M 200 100 L 250 100 L 280 120 L 230 120 L 200 100 "/>
<path style="fill-rule:nonzero;fill:rgb(0%,0%,60%);fill-opacity:1;stroke-width:1;stroke-linecap:butt;stroke-linejoin:miter;stroke:rgb(0%,0%,0%);stroke-opacity:1;stroke-miterlimit:10;" d="M 40 10 L 190 10 L 280 70 L 130 70 L 40 10 "/>
<path style="fill-rule:nonzero;fill:rgb(0%,0%,100%);fill-opacity:1;stroke-width:1;stroke-linecap:butt;stroke-linejoin:miter;stroke:rgb(0%,0%,0%);stroke-opacity:1;stroke-miterlimit:10;" d="M 40 10 L 130 70 L 130 220 L 40 160 L 40 10 "/>
<path style="fill-rule:nonzero;fill:rgb(0%,0%,80%);fill-opacity:1;stroke-width:1;stroke-linecap:butt;stroke-linejoin:miter;stroke:rgb(0%,0%,0%);stroke-opacity:1;stroke-miterlimit:10;" d="M 130 70 L 280 70 L 280 220 L 130 220 L 130 70 "/>
<path style="fill:none;stroke-width:1;stroke-linecap:butt;stroke-linejoin:miter;stroke:rgb(0%,0%,0%);stroke-opacity:0.25;stroke-miterlimit:10;" d="M 130 120 L 180 120 L 210 140 L 160 140 L 130 120 "/>
<path style="fill:none;stroke-width:1;stroke-linecap:butt;stroke-linejoin:miter;stroke:rgb(0%,0%,0%);stroke-opacity:0.25;stroke-miterlimit:10;" d="M 180 120 L 230 120 L 260 140 L 210 140 L 180 120 "/>
<path style="fill:none;stroke-width:1;stroke-linecap:butt;stroke-linejoin:miter;stroke:rgb(0%,0%,0%);stroke-opacity:0.25;stroke-miterlimit:10;" d="M 230 120 L 280 120 L 310 140 L 260 140 L 230 120 "/>
<path style="fill:none;stroke-width:1;stroke-linecap:butt;stroke-linejoin:miter;stroke:rgb(0%,0%,0%);stroke-opacity:0.25;stroke-miterlimit:10;" d="M 160 140 L 210 140 L 240 160 L 190 160 L 160 140 "/>
<path style="fill:none;stroke-width:1;stroke-linecap:butt;stroke-linejoin:miter;stroke:rgb(0%,0%,0%);stroke-opacity:0.25;stroke-miterlimit:10;" d="M 210 140 L 260 140 L 290 160 L 240 160 L 210 140 "/>
<path style="fill:none;stroke-width:1;stroke-linecap:butt;stroke-linejoin:miter;stroke:rgb(0%,0%,0%);stroke-opacity:0.25;stroke-miterlimit:10;" d="M 260 140 L 310 140 L 340 160 L 290 160 L 260 140 "/>
<path style="fill:none;stroke-width:1;stroke-linecap:butt;stroke-linejoin:miter;stroke:rgb(0%,0%,0%);stroke-opacity:0.25;stroke-miterlimit:10;" d="M 190 160 L 240 160 L 270 180 L 220 180 L 190 160 "/>
<path style="fill:none;stroke-width:1;stroke-linecap:butt;stroke-linejoin:miter;stroke:rgb(0%,0%,0%);stroke-opacity:0.25;stroke-miterlimit:10;" d="M 240 160 L 290 160 L 320 180 L 270 180 L 240 160 "/>
<path style="fill:none;stroke-width:1;stroke-linecap:butt;stroke-linejoin:miter;stroke:rgb(0%,0%,0%);stroke-opacity:0.25;stroke-miterlimit:10;" d="M 290 160 L 340 160 L 370 180 L 320 180 L 290 160 "/>
<path style="fill:none;stroke-width:1;stroke-linecap:butt;stroke-linejoin:miter;stroke:rgb(0%,0%,0%);stroke-opacity:0.25;stroke-miterlimit:10;" d="M 220 180 L 270 180 L 300 200 L 250 200 L 220 180 "/>
<path style="fill:none;stroke-width:1;stroke-linecap:butt;stroke-linejoin:miter;stroke:rgb(0%,0%,0%);stroke-opacity:0.25;stroke-miterlimit:10;" d="M 270 180 L 320 180 L 350 200 L 300 200 L 270 180 "/>
<path style="fill:none;stroke-width:1;stroke-linecap:butt;stroke-linejoin:miter;stroke:rgb(0%,0%,0%);stroke-opacity:0.25;stroke-miterlimit:10;" d="M 320 180 L 370 180 L 400 200 L 350 200 L 320 180 "/>
<path style="fill:none;stroke-width:1;stroke-linecap:butt;stroke-linejoin:miter;stroke:rgb(0%,0%,0%);stroke-opacity:0.25;stroke-miterlimit:10;" d="M 250 200 L 300 200 L 330 220 L 280 220 L 250 200 "/>
<path style="fill:none;stroke-width:1;stroke-linecap:butt;stroke-linejoin:miter;stroke:rgb(0%,0%,0%);stroke-opacity:0.25;stroke-miterlimit:10;" d="M 300 200 L 350 200 L 380 220 L 330 220 L 300 200 "/>
<path style="fill:none;stroke-width:1;stroke-linecap:butt;stroke-linejoin:miter;stroke:rgb(0%,0%,0%);stroke-opacity:0.25;stroke-miterlimit:10;" d="M 350 200 L 400 200 L 430 220 L 380 220 L 350 200 "/>
<path style="fill:none;stroke-width:1;stroke-linecap:butt;stroke-linejoin:miter;stroke:rgb(0%,0%,0%);stroke-opacity:0.25;stroke-miterlimit:10;" d="M 130 120 L 160 140 L 160 190 L 130 170 L 130 120 "/>
<path style="fill:none;stroke-width:1;stroke-linecap:butt;stroke-linejoin:miter;stroke:rgb(0%,0%,0%);stroke-opacity:0.25;stroke-miterlimit:10;" d="M 130 170 L 160 190 L 160 240 L 130 220 L 130 170 "/>
<path style="fill:none;stroke-width:1;stroke-linecap:butt;stroke-linejoin:miter;stroke:rgb(0%,0%,0%);stroke-opacity:0.25;stroke-miterlimit:10;" d="M 130 220 L 160 240 L 160 290 L 130 270 L 130 220 "/>
<path style="fill:none;stroke-width:1;stroke-linecap:butt;stroke-linejoin:miter;stroke:rgb(0%,0%,0%);stroke-opacity:0.25;stroke-miterlimit:10;" d="M 130 270 L 160 290 L 160 340 L 130 320 L 130 270 "/>
<path style="fill:none;stroke-width:1;stroke-linecap:butt;stroke-linejoin:miter;stroke:rgb(0%,0%,0%);stroke-opacity:0.25;stroke-miterlimit:10;" d="M 160 140 L 190 160 L 190 210 L 160 190 L 160 140 "/>
<path style="fill:none;stroke-width:1;stroke-linecap:butt;stroke-linejoin:miter;stroke:rgb(0%,0%,0%);stroke-opacity:0.25;stroke-miterlimit:10;" d="M 160 190 L 190 210 L 190 260 L 160 240 L 160 190 "/>
<path style="fill:none;stroke-width:1;stroke-linecap:butt;stroke-linejoin:miter;stroke:rgb(0%,0%,0%);stroke-opacity:0.25;stroke-miterlimit:10;" d="M 160 240 L 190 260 L 190 310 L 160 290 L 160 240 "/>
<path style="fill:none;stroke-width:1;stroke-linecap:butt;stroke-linejoin:miter;stroke:rgb(0%,0%,0%);stroke-opacity:0.25;stroke-miterlimit:10;" d="M 160 290 L 190 310 L 190 360 L 160 340 L 160 290 "/>
<path style="fill:none;stroke-width:1;stroke-linecap:butt;stroke-linejoin:miter;stroke:rgb(0%,0%,0%);stroke-opacity:0.25;stroke-miterlimit:10;" d="M 190 160 L 220 180 L 220 230 L 190 210 L 190 160 "/>
<path style="fill:none;stroke-width:1;stroke-linecap:butt;stroke-linejoin:miter;stroke:rgb(0%,0%,0%);stroke-opacity:0.25;stroke-miterlimit:10;" d="M 190 210 L 220 230 L 220 280 L 190 260 L 190 210 "/>
<path style="fill:none;stroke-width:1;stroke-linecap:butt;stroke-linejoin:miter;stroke:rgb(0%,0%,0%);stroke-opacity:0.25;stroke-miterlimit:10;" d="M 190 260 L 220 280 L 220 330 L 190 310 L 190 260 "/>
<path style="fill:none;stroke-width:1;stroke-linecap:butt;stroke-linejoin:miter;stroke:rgb(0%,0%,0%);stroke-opacity:0.25;stroke-miterlimit:10;" d="M 190 310 L 220 330 L 220 380 L 190 360 L 190 310 "/>
<path style="fill:none;stroke-width:1;stroke-linecap:butt;stroke-linejoin:miter;stroke:rgb(0%,0%,0%);stroke-opacity:0.25;stroke-miterlimit:10;" d="M 220 180 L 250 200 L 250 250 L 220 230 L 220 180 "/>
<path style="fill:none;stroke-width:1;stroke-linecap:butt;stroke-linejoin:miter;stroke:rgb(0%,0%,0%);stroke-opacity:0.25;stroke-miterlimit:10;" d="M 220 230 L 250 250 L 250 300 L 220 280 L 220 230 "/>
<path style="fill:none;stroke-width:1;stroke-linecap:butt;stroke-linejoin:miter;stroke:rgb(0%,0%,0%);stroke-opacity:0.25;stroke-miterlimit:10;" d="M 220 280 L 250 300 L 250 350 L 220 330 L 220 280 "/>
<path style="fill:none;stroke-width:1;stroke-linecap:butt;stroke-linejoin:miter;stroke:rgb(0%,0%,0%);stroke-opacity:0.25;stroke-miterlimit:10;" d="M 220 330 L 250 350 L 250 400 L 220 380 L 220 330 "/>
<path style="fill:none;stroke-width:1;stroke-linecap:butt;stroke-linejoin:miter;stroke:rgb(0%,0%,0%);stroke-opacity:0.25;stroke-miterlimit:10;" d="M 250 200 L 280 220 L 280 270 L 250 250 L 250 200 "/>
<path style="fill:none;stroke-width:1;stroke-linecap:butt;stroke-linejoin:miter;stroke:rgb(0%,0%,0%);stroke-opacity:0.25;stroke-miterlimit:10;" d="M 250 250 L 280 270 L 280 320 L 250 300 L 250 250 "/>
<path style="fill:none;stroke-width:1;stroke-linecap:butt;stroke-linejoin:miter;stroke:rgb(0%,0%,0%);stroke-opacity:0.25;stroke-miterlimit:10;" d="M 250 300 L 280 320 L 280 370 L 250 350 L 250 300 "/>
<path style="fill:none;stroke-width:1;stroke-linecap:butt;stroke-linejoin:miter;stroke:rgb(0%,0%,0%);stroke-opacity:0.25;stroke-miterlimit:10;" d="M 250 350 L 280 370 L 280 420 L 250 400 L 250 350 "/>
<path style="fill:none;stroke-width:1;stroke-linecap:butt;stroke-linejoin:miter;stroke:rgb(0%,0%,0%);stroke-opacity:0.25;stroke-miterlimit:10;" d="M 280 220 L 330 220 L 330 270 L 280 270 L 280 220 "/>
<path style="fill:none;stroke-width:1;stroke-linecap:butt;stroke-linejoin:miter;stroke:rgb(0%,0%,0%);stroke-opacity:0.25;stroke-miterlimit:10;" d="M 280 270 L 330 270 L 330 320 L 280 320 L 280 270 "/>
<path style="fill:none;stroke-width:1;stroke-linecap:butt;stroke-linejoin:miter;stroke:rgb(0%,0%,0%);stroke-opacity:0.25;stroke-miterlimit:10;" d="M 280 320 L 330 320 L 330 370 L 280 370 L 280 320 "/>
<path style="fill:none;stroke-width:1;stroke-linecap:butt;stroke-linejoin:miter;stroke:rgb(0%,0%,0%);stroke-opacity:0.25;stroke-miterlimit:10;" d="M 280 370 L 330 370 L 330 420 L 280 420 L 280 370 "/>
<path style="fill:none;stroke-width:1;stroke-linecap:butt;stroke-linejoin:miter;stroke:rgb(0%,0%,0%);stroke-opacity:0.25;stroke-miterlimit:10;" d="M 330 220 L 380 220 L 380 270 L 330 270 L 330 220 "/>
<path style="fill:none;stroke-width:1;stroke-linecap:butt;stroke-linejoin:miter;stroke:rgb(0%,0%,0%);stroke-opacity:0.25;stroke-miterlimit:10;" d="M 330 270 L 380 270 L 380 320 L 330 320 L 330 270 "/>
<path style="fill:none;stroke-width:1;stroke-linecap:butt;stroke-linejoin:miter;stroke:rgb(0%,0%,0%);stroke-opacity:0.25;stroke-miterlimit:10;" d="M 330 320 L 380 320 L 380 370 L 330 370 L 330 320 "/>
<path style="fill:none;stroke-width:1;stroke-linecap:butt;stroke-linejoin:miter;stroke:rgb(0%,0%,0%);stroke-opacity:0.25;stroke-miterlimit:10;" d="M 330 370 L 380 370 L 380 420 L 330 420 L 330 370 "/>
<path style="fill:none;stroke-width:1;stroke-linecap:butt;stroke-linejoin:miter;stroke:rgb(0%,0%,0%);stroke-opacity:0.25;stroke-miterlimit:10;" d="M 380 220 L 430 220 L 430 270 L 380 270 L 380 220 "/>
<path style="fill:none;stroke-width:1;stroke-linecap:butt;stroke-linejoin:miter;stroke:rgb(0%,0%,0%);stroke-opacity:0.25;stroke-miterlimit:10;" d="M 380 270 L 430 270 L 430 320 L 380 320 L 380 270 "/>
<path style="fill:none;stroke-width:1;stroke-linecap:butt;stroke-linejoin:miter;stroke:rgb(0%,0%,0%);stroke-opacity:0.25;stroke-miterlimit:10;" d="M 380 320 L 430 320 L 430 370 L 380 370 L 380 320 "/>
<path style="fill:none;stroke-width:1;stroke-linecap:butt;stroke-linejoin:miter;stroke:rgb(0%,0%,0%);stroke-opacity:0.25;stroke-miterlimit:10;" d="M 380 370 L 430 370 L 430 420 L 380 420 L 380 370 "/>
</g>
</svg>
